<svg width="95" height="88" viewBox="0 0 95 88" fill="none" xmlns="http://www.w3.org/2000/svg">
<path d="M3.37362 0H0V66.598H3.37362V0Z" fill="white"/>
<path d="M10.1217 0H6.74805V66.598H10.1217V0Z" fill="white"/>
<path d="M52.0634 11.8921L49.6807 9.51306L28.214 30.9183L25.8281 33.2974L28.214 35.6764L37.7544 45.1895L40.1403 47.5686L42.523 45.1895L61.6071 26.1634L90.2283 54.7026L59.2212 85.6209L61.6071 88L92.6142 57.0817L95.0001 54.7026L92.6142 52.3235L63.9897 23.7843L61.6071 21.4052L59.2212 23.7843L40.1403 42.8104L30.5999 33.2974L52.0634 11.8921Z" fill="white"/>
<path d="M47.2962 7.13399L44.9103 4.75812L18.675 30.9183L16.2891 33.2974L18.675 35.6764L37.7558 54.7026L40.1417 57.0817L42.5244 54.7026L61.6084 35.6764L80.6892 54.7026L54.4507 80.8628L56.8366 83.2418L83.0751 57.0817L85.4578 54.7026L83.0751 52.3235L63.9911 33.2974L61.6084 30.9183L59.2225 33.2974L40.1417 52.3235L21.0577 33.2974L47.2962 7.13399Z" fill="white"/>
<path d="M16.8658 0H13.4922V26.5695L16.8658 23.2055V0Z" fill="white"/>
<path d="M13.4922 66.598H16.8658V43.3893L13.4922 40.0253V66.598Z" fill="white"/>
<path d="M73.5341 52.3235L63.9905 42.8105L61.6078 40.4314L59.2219 42.8105L40.1411 61.8366L16.8657 38.6311L13.4921 35.2672L11.5166 33.2974L13.4921 31.3276L16.8657 27.9637L42.5238 2.37907L40.1411 0L16.8657 23.2055L13.4921 26.5695L9.13395 30.9183L6.74805 33.2974L9.13395 35.6765L13.4921 40.0253L16.8657 43.3892L37.7552 64.2157L40.1411 66.5948L42.5238 64.2157L61.6078 45.1895L71.1482 54.7026L49.6815 76.1078L52.0642 78.4869L73.5341 57.0817L75.9168 54.7026L73.5341 52.3235Z" fill="white"/>
<path opacity="0.3" d="M6.57812 33.1279L17.3115 43.8305V48.7421L6.60699 38.0683L6.57812 33.1279Z" fill="black"/>
</svg>
